<?xml version="1.0" encoding="utf-8"?>
<!-- Generator: Adobe Illustrator 16.0.0, SVG Export Plug-In . SVG Version: 6.00 Build 0)  -->
<!DOCTYPE svg PUBLIC "-//W3C//DTD SVG 1.1//EN" "http://www.w3.org/Graphics/SVG/1.1/DTD/svg11.dtd">
<svg version="1.1" id="Layer_1" xmlns="http://www.w3.org/2000/svg" xmlns:xlink="http://www.w3.org/1999/xlink" x="0px" y="0px"
	 width="372px" height="300px" viewBox="0 0 372 300" enable-background="new 0 0 372 300" xml:space="preserve">
<g>
	<linearGradient id="SVGID_1_" gradientUnits="userSpaceOnUse" x1="107.4429" y1="21.5376" x2="117.9711" y2="117.6051">
		<stop  offset="0" style="stop-color:#E12528"/>
		<stop  offset="0.9703" style="stop-color:#A51E23"/>
	</linearGradient>
	<polygon fill="url(#SVGID_1_)" points="60.767,13.13 132.944,13.13 157.409,59.971 116.351,112.699 	"/>
	<linearGradient id="SVGID_2_" gradientUnits="userSpaceOnUse" x1="68.7026" y1="-19.8057" x2="80.1599" y2="202.9935">
		<stop  offset="0" style="stop-color:#FFFFFF"/>
		<stop  offset="0.7763" style="stop-color:#98999C"/>
		<stop  offset="0.9703" style="stop-color:#808080"/>
	</linearGradient>
	<polygon fill="url(#SVGID_2_)" points="35.483,13.13 103.638,129.583 110.826,120.415 52.365,13.13 	"/>
	<linearGradient id="SVGID_3_" gradientUnits="userSpaceOnUse" x1="31.4702" y1="103.2061" x2="146.449" y2="103.2061">
		<stop  offset="0" style="stop-color:#E12528"/>
		<stop  offset="0.9703" style="stop-color:#A51E23"/>
	</linearGradient>
	<path fill="url(#SVGID_3_)" d="M31.47,125.258c0,0,1.805-25.762,25.689-50.54l17.558,29.23c0,0-11.394,18.049-11.844,27.746
		L31.47,125.258z"/>
	<linearGradient id="SVGID_4_" gradientUnits="userSpaceOnUse" x1="32.8262" y1="186.2256" x2="103.0257" y2="186.2256">
		<stop  offset="0" style="stop-color:#E12528"/>
		<stop  offset="0.9703" style="stop-color:#A51E23"/>
	</linearGradient>
	<path fill="url(#SVGID_4_)" d="M32.826,169.287c0,0,3.282,20.789,21.102,41.422l20.423-26.764c0,0-7.778-8.457-10.539-22.203
		L32.826,169.287z"/>
	<linearGradient id="SVGID_5_" gradientUnits="userSpaceOnUse" x1="0" y1="149.749" x2="330.1816" y2="149.749">
		<stop  offset="0" style="stop-color:#E12528"/>
		<stop  offset="0.9703" style="stop-color:#A51E23"/>
	</linearGradient>
	<polygon fill="url(#SVGID_5_)" points="0,299.498 232.121,0 330.182,0.105 	"/>
	<linearGradient id="SVGID_6_" gradientUnits="userSpaceOnUse" x1="82.2578" y1="354.5205" x2="279.242" y2="-7.5088">
		<stop  offset="0" style="stop-color:#FFFFFF"/>
		<stop  offset="0.9703" style="stop-color:#808080"/>
	</linearGradient>
	<polygon fill="url(#SVGID_6_)" points="16.308,300.277 348.527,0 370.619,0 	"/>
	<linearGradient id="SVGID_7_" gradientUnits="userSpaceOnUse" x1="61.8706" y1="81.811" x2="64.8149" y2="207.9444">
		<stop  offset="0" style="stop-color:#FFFFFF"/>
		<stop  offset="0.1501" style="stop-color:#E3E3E3"/>
		<stop  offset="0.4058" style="stop-color:#B8B8B8"/>
		<stop  offset="0.6368" style="stop-color:#999999"/>
		<stop  offset="0.8328" style="stop-color:#878787"/>
		<stop  offset="0.9703" style="stop-color:#808080"/>
	</linearGradient>
	<path fill="url(#SVGID_7_)" d="M74.718,103.948l-5.784-9.848c0,0-39.081,44.453-1.773,99.269l7.19-9.424
		c0,0-18.284-21.361-10.89-53.719C65.322,122.076,68.836,113.256,74.718,103.948z"/>
	<linearGradient id="SVGID_8_" gradientUnits="userSpaceOnUse" x1="130.958" y1="231.1904" x2="129.4551" y2="279.144">
		<stop  offset="0" style="stop-color:#E12528"/>
		<stop  offset="0.5414" style="stop-color:#A51E23"/>
	</linearGradient>
	<path fill="url(#SVGID_8_)" d="M123.961,224.463l-20.482,17.434c0,0,19.539,8.988,54.241,1.488l-11.047-19.854
		C146.672,223.531,140.335,225.674,123.961,224.463z"/>
	<linearGradient id="SVGID_9_" gradientUnits="userSpaceOnUse" x1="175.8784" y1="220.2129" x2="171.6424" y2="321.7855">
		<stop  offset="0" style="stop-color:#FFFFFF"/>
		<stop  offset="0.5686" style="stop-color:#808080"/>
	</linearGradient>
	<polygon fill="url(#SVGID_9_)" points="157.72,215.557 188.436,269.252 192.186,269.252 161.549,212.117 	"/>
	<linearGradient id="SVGID_10_" gradientUnits="userSpaceOnUse" x1="169.2866" y1="216.6006" x2="275.2637" y2="216.6006">
		<stop  offset="0" style="stop-color:#E12528"/>
		<stop  offset="0.9703" style="stop-color:#A51E23"/>
	</linearGradient>
	<polyline fill="url(#SVGID_10_)" points="275.264,268.602 203.049,268.602 169.287,205.246 217.223,164.6 	"/>
</g>
</svg>
